<svg xmlns="http://www.w3.org/2000/svg" width="35" height="35" viewBox="0 0 35 35">
  <path id="profile--3" d="M17.5,8A17.5,17.5,0,1,0,35,25.5,17.5,17.5,0,0,0,17.5,8Zm0,6.774a6.21,6.21,0,1,1-6.21,6.21A6.21,6.21,0,0,1,17.5,14.774Zm0,24.274A13.522,13.522,0,0,1,7.162,34.236a7.868,7.868,0,0,1,6.951-4.22,1.727,1.727,0,0,1,.5.078,9.343,9.343,0,0,0,2.886.487,9.307,9.307,0,0,0,2.886-.487,1.727,1.727,0,0,1,.5-.078,7.868,7.868,0,0,1,6.951,4.22A13.522,13.522,0,0,1,17.5,39.048Z" transform="translate(0 -8)" fill="#677185"/>
</svg>
