<svg xmlns="http://www.w3.org/2000/svg" xmlns:xlink="http://www.w3.org/1999/xlink" width="48" height="48" viewBox="0 0 48 48">
  <defs>
    <clipPath id="clip-path">
      <rect id="Прямоугольник_2" data-name="Прямоугольник 2" width="48" height="48" transform="translate(-0.006 -0.006)" fill="#fff" stroke="#707070" stroke-width="1"/>
    </clipPath>
  </defs>
  <g id="Группа_масок_1" data-name="Группа масок 1" transform="translate(0.006 0.006)" clip-path="url(#clip-path)">
    <g id="Слой_2" data-name="Слой 2" transform="translate(0 0)">
      <g id="Слой_1" data-name="Слой 1" transform="translate(0 0)">
        <circle id="Эллипс_1" data-name="Эллипс 1" cx="24" cy="24" r="24" transform="translate(-0.006 -0.006)"/>
        <g id="YYzrfq" transform="translate(5.994 5.49)">
          <path id="Контур_1" data-name="Контур 1" d="M11.257,19.122a13.781,13.781,0,0,1,.022-3.86,1.974,1.974,0,0,1,1.1-1.618,15.394,15.394,0,0,1,3.293-1.48c-2.252,4.483-2.031,7.949.648,10.671a6.845,6.845,0,0,0,8.357,1.206,2.907,2.907,0,0,1-2.561-1,3.058,3.058,0,0,1-.679-2.611,2.884,2.884,0,0,1,3.264-2.4c1.731.355,2.574,1.822,2.276,3.959a6.59,6.59,0,0,0,1.718-4.353A8.309,8.309,0,0,0,27.339,12.7c-.079-.122-.6-.422.053-.505,1.074.583,2.223.971,3.258,1.655a1.58,1.58,0,0,1,.759,1.109,10.988,10.988,0,0,1-6.742,12.653A10.044,10.044,0,0,1,12.1,21.843,8.292,8.292,0,0,1,11.257,19.122Z" transform="translate(-3.095 -3.159)" fill="#e1a22f"/>
          <path id="Контур_2" data-name="Контур 2" d="M4.42,21.774a25.7,25.7,0,0,1,2.62-3.835c.12-.132.187-.342.457-.352q.11.727.223,1.457A13.193,13.193,0,0,0,16.014,30.4C24.6,34.08,34.033,27.749,34.508,18.118c0-.161.015-.321.03-.651A8.3,8.3,0,0,1,36.316,19.6c1.924,3.153,2.038,2.259-.028,5.342a18.271,18.271,0,0,1-28.974,2,21.246,21.246,0,0,1-2.729-3.831C4.359,22.71,4.089,22.273,4.42,21.774Z" transform="translate(-2.778 -3.682)" fill="#e1a22f"/>
          <path id="Контур_3" data-name="Контур 3" d="M27.611,8.945A19.748,19.748,0,0,0,15,8.687,21.385,21.385,0,0,0,3.335,17.141l-.462.649c-.2-1.041-.156-1.134,1.427-3.172C8.992,9.53,14.725,6.881,21.522,7.065a21.775,21.775,0,0,1,17.01,8.654,2.612,2.612,0,0,1,.627,2.213A21.588,21.588,0,0,0,27.611,8.945Z" transform="translate(-2.709 -2.376)" fill="#e1a22f"/>
          <path id="Контур_4" data-name="Контур 4" d="M2.72,27.366c0-.258-.088-.542.171-.738a20.736,20.736,0,0,0,9.642,8.293,21.315,21.315,0,0,0,26.043-7.487l.563-.822a2.482,2.482,0,0,1-.606,2.152,21.632,21.632,0,0,1-14.688,8.47c-8,.971-14.682-1.772-20.053-7.965A4.459,4.459,0,0,1,2.72,27.366Z" transform="translate(-2.705 -4.585)" fill="#e1a22f"/>
          <path id="Контур_5" data-name="Контур 5" d="M3.976,31.051l.2-.171a22.635,22.635,0,0,0,26.033,5.585,23.289,23.289,0,0,0,7.885-5.734,5.562,5.562,0,0,1-1.569,2.611,23.531,23.531,0,0,1-31,0A9.731,9.731,0,0,1,3.976,31.051Z" transform="translate(-2.764 -4.776)" fill="#e1a22f"/>
          <path id="Контур_6" data-name="Контур 6" d="M38.11,13.547l-.2.194A21.316,21.316,0,0,0,25.641,6.685c-8.317-1.6-15.5.754-21.45,7.036A3.593,3.593,0,0,1,5.5,11.309c.491-.431,1-.843,1.5-1.263a1.2,1.2,0,0,1,.667-.87,24.18,24.18,0,0,1,10.935-4,23.418,23.418,0,0,1,15.532,3.8,13.906,13.906,0,0,1,3.609,3.246C38.014,12.568,38.4,12.985,38.11,13.547Z" transform="translate(-2.774 -2.282)" fill="#e1a22f"/>
          <path id="Контур_7" data-name="Контур 7" d="M35.287,35.6c-1.3,2.121-3.39,2.968-5.5,3.751a24.224,24.224,0,0,1-20.1-1.268A7.159,7.159,0,0,1,6.87,35.409a23.81,23.81,0,0,0,14.275,4.769A24.062,24.062,0,0,0,35.287,35.6Z" transform="translate(-2.898 -4.992)" fill="#e1a22f"/>
          <path id="Контур_8" data-name="Контур 8" d="M13.239,40.482a26.648,26.648,0,0,0,17.322.124C26.1,43.369,18.544,43.573,13.239,40.482Z" transform="translate(-3.817 -5.227)" fill="#e1a22f"/>
          <path id="Контур_10" data-name="Контур 10" d="M35.488,9.375A23.354,23.354,0,0,0,20.694,4.589,22.763,22.763,0,0,0,7.015,9.323,5.246,5.246,0,0,1,9.687,6.689c5.6-2.774,11.394-3.751,17.481-2.08a26.293,26.293,0,0,1,5.564,2.1,7.089,7.089,0,0,1,2.756,2.663Z" transform="translate(-2.905 -2.225)" fill="#e1a22f"/>
          <path id="Контур_11" data-name="Контур 11" d="M31,4.373c-10.507-2.4-10.795-1.519-17.794.014C18.113,1.459,25.775,1.352,31,4.373Z" transform="translate(-3.828 -2.149)" fill="#e1a22f"/>
          <path id="Контур_12" data-name="Контур 12" d="M19.312,17.845a1.329,1.329,0,1,1-1.287-1.37,1.329,1.329,0,0,1,1.287,1.37Z" transform="translate(-3.832 -3.305)" fill="#e1a22f"/>
        </g>
      </g>
    </g>
  </g>
</svg>
